# xmcd
#
# Track frame offsets: 
#        150
#        14953
#        39448
#        55920
#        76713
#        97697
#        116047
#        136104
#        156368
#        182338
#        202986
#        223733
#        229009
#        264495
#        282623
#        299142
#
# Disc length: 4234 seconds
#
# Revision: 0
# Processed by: cddbd v1.5.2PL0 Copyright (c) Steve Scherf et al.
# Submitted via: ExactAudioCopyFreeDBPlugin 1.0
#
DISCID=e7108810
DTITLE=Trond Granlund - 50 år på veien Vol 2 CD2
DYEAR=2016
DGENRE=Country
TTITLE0=Tyrielden
TTITLE1=Det klare vannet
TTITLE2=Trivsel
TTITLE3=Støvler av klapperslangeskinn
TTITLE4=Brun formiddag
TTITLE5=Riksvei 14
TTITLE6=Den dokka Amy
TTITLE7=Vinden har fortalt
TTITLE8=Mangas Coloradas
TTITLE9=Kanskje, kanskje ikke
TTITLE10=Håp for Groruddalen
TTITLE11=Blikkenslager Evensen
TTITLE12=Manglerud
TTITLE13=Fabrikkpiker
TTITLE14=60-talls Jenny
TTITLE15=Los meg i havn
EXTD=
EXTT0=
EXTT1=
EXTT2=
EXTT3=
EXTT4=
EXTT5=
EXTT6=
EXTT7=
EXTT8=
EXTT9=
EXTT10=
EXTT11=
EXTT12=
EXTT13=
EXTT14=
EXTT15=
PLAYORDER=
